<svg width="28" height="20" viewBox="0 0 28 20" fill="none" xmlns="http://www.w3.org/2000/svg">
<path d="M19.534 3.30884C19.5149 3.65679 19.4927 3.86651 19.4927 4.07464C19.4911 8.25635 19.5054 12.4381 19.4768 16.6198C19.472 17.2283 19.6881 17.4555 20.2426 17.5524C21.0751 17.6986 22.0077 17.7129 22.7004 18.118C23.9683 18.86 25.287 18.5486 26.585 18.6868C26.8535 18.7154 27.0855 19.0824 27.3334 19.2937C27.0839 19.505 26.8567 19.7592 26.5755 19.9118C26.4119 20.0007 26.1608 19.934 25.9495 19.934C17.9309 19.934 9.91063 19.9356 1.89198 19.9308C1.38515 19.9308 0.684489 20.0865 0.667013 19.3144C0.649536 18.539 1.33907 18.6677 1.85702 18.6614C2.25104 18.6566 2.64506 18.6614 3.14871 18.6614C3.2218 17.9035 3.29488 17.179 3.36319 16.453C3.54749 14.5035 3.87003 12.5556 3.87479 10.6062C3.87956 8.6043 3.57451 6.60083 3.40133 4.59894C3.32984 3.7823 3.29806 2.95613 3.14077 2.15538C3.07245 1.80902 2.71973 1.52462 2.51795 1.19733C2.35749 0.93677 2.2288 0.657142 2.08581 0.385458C2.36702 0.248821 2.65777 -0.0180963 2.92946 0.000969285C3.69526 0.0549883 4.29583 0.72546 4.39433 1.63743C4.6263 3.79342 4.84554 5.9526 4.99489 8.11654C5.04891 8.9014 5.25386 9.20645 6.10546 9.1715C7.95481 9.09683 9.81053 9.10954 11.6615 9.16514C12.0364 9.17626 12.61 9.45907 12.7133 9.74982C12.834 10.0914 12.5401 10.5808 12.4257 11.005C12.3494 11.2894 12.189 11.5817 12.2112 11.8582C12.3812 13.9141 12.5814 15.9684 12.7959 18.0195C12.8181 18.2372 12.9881 18.5994 13.12 18.6137C13.5156 18.6566 13.9382 18.6058 14.3259 18.5025C14.5817 18.4358 14.7771 18.1434 15.0329 18.0767C15.902 17.8511 16.7822 17.6604 17.6655 17.4952C18.0818 17.4173 18.2264 17.233 18.2248 16.8073C18.2137 12.5191 18.2105 8.23252 18.2311 3.94436C18.2343 3.38034 17.9754 3.29295 17.5067 3.29613C15.8654 3.30884 14.2242 3.3009 12.5846 3.29137C12.0555 3.28819 11.7203 3.02445 11.7219 2.47314C11.7234 1.93136 12.0396 1.65808 12.5766 1.64378C12.8149 1.63743 13.0533 1.63266 13.2916 1.63266C17.0761 1.62472 20.8606 1.61836 24.6451 1.61201C24.7516 1.61201 24.8564 1.61201 24.9629 1.61201C25.5301 1.61201 25.9781 1.7979 25.9924 2.44295C26.0051 3.08959 25.5762 3.3009 24.9978 3.30249C23.5155 3.30408 22.0331 3.30566 20.5508 3.30725C20.2394 3.30725 19.9264 3.30725 19.5292 3.30725L19.534 3.30884ZM5.15854 11.2052C4.92499 13.7107 4.69779 16.1384 4.47059 18.5803H11.5233C11.3104 16.213 11.1133 13.9236 10.883 11.6389C10.8671 11.4816 10.6065 11.2258 10.4572 11.2226C8.71744 11.1924 6.97612 11.2036 5.16012 11.2036L5.15854 11.2052Z" fill="#FDBA74"/>
</svg>
