<svg width="28" height="24" viewBox="0 0 28 24" fill="none" xmlns="http://www.w3.org/2000/svg">
<path d="M0.666626 14.1499V12.602H2.71643C2.94333 11.5983 3.0837 10.6541 3.37213 9.75421C4.56433 6.04303 7.07947 3.61826 10.7657 2.43569C11.6867 2.13956 12.6251 2.02996 12.2001 0.666626H15.8594C15.4094 2.08957 16.4247 2.12225 17.315 2.42992C21.7319 3.95285 24.3393 7.03717 25.0874 11.6675C25.1316 11.9482 25.1816 12.227 25.2431 12.5943H27.3333V14.148H0.666626V14.1499ZM23.5164 12.5424C23.6971 7.82363 18.9072 3.37021 13.8654 3.49328C8.83507 3.61634 4.1586 8.13129 4.56241 12.5424H23.5164Z" fill="#FDBA74"/>
<path d="M25.272 20.5128C24.2682 21.4396 23.1972 22.4318 22.1415 23.4048C22.0242 23.3568 21.9473 23.3491 21.9107 23.3068C20.434 21.5242 18.4899 21.1243 16.3132 21.4204C12.9808 21.8723 10.2119 20.8724 8.01207 18.2899C7.49674 17.6861 6.76989 17.2631 6.26993 16.6497C6.04303 16.3709 6.13341 15.8325 6.08149 15.4133C6.48337 15.4306 6.99679 15.2941 7.26791 15.4902C8.09091 16.0921 8.87161 16.7728 9.57346 17.5131C10.5599 18.5553 11.779 18.8668 13.1308 18.888C13.7711 18.8976 14.4134 18.9129 15.0518 18.8745C15.6133 18.8418 16.4959 19.111 16.4978 18.2303C16.4978 17.2939 15.5863 17.5612 14.996 17.5362C14.1019 17.4977 13.2039 17.5208 12.3078 17.5285C11.7771 17.5323 11.3098 17.415 11.281 16.7901C11.2502 16.0978 11.7367 15.9632 12.3117 15.9632C14.648 15.9671 16.9881 15.8959 19.3206 16.0017C20.1378 16.0382 21.105 16.3074 21.705 16.8189C22.9799 17.9092 24.0586 19.2283 25.2739 20.5109L25.272 20.5128Z" fill="#FDBA74"/>
</svg>
