<svg width="28" height="28" viewBox="0 0 28 28" fill="none" xmlns="http://www.w3.org/2000/svg">
<path d="M13.9946 27.2959C10.5659 27.2959 7.13716 27.3021 3.70844 27.2938C1.71212 27.2897 0.691324 26.2545 0.687208 24.2315C0.674859 17.4069 0.668684 10.5845 0.666626 3.75994C0.666626 1.73892 1.67713 0.681081 3.67962 0.676965C10.5721 0.662558 17.4645 0.662558 24.3549 0.681081C26.3265 0.685197 27.3329 1.71628 27.3329 3.66732C27.335 10.5248 27.3288 17.3822 27.3164 24.2417C27.3123 26.2504 26.2956 27.2794 24.2808 27.2897C20.8521 27.3062 17.4233 27.2938 13.9946 27.2938V27.2959ZM14.8425 22.6118C14.7643 22.5706 14.6882 22.5294 14.61 22.4883C14.61 23.2354 14.6491 23.9845 14.5997 24.7295C14.5524 25.4437 14.8034 25.6803 15.5279 25.6721C18.4071 25.6371 21.2863 25.6639 24.1655 25.6556C25.3284 25.6536 25.6535 25.3531 25.6556 24.2047C25.6659 17.3843 25.6659 10.5618 25.6556 3.74142C25.6556 2.61771 25.3675 2.35222 24.2355 2.35017C21.2534 2.33988 18.2713 2.34605 15.2891 2.35017C15.0957 2.35017 14.9022 2.39956 14.6882 2.42632V5.26026C15.1739 5.65953 15.4867 5.91678 15.8016 6.1761C15.46 6.51362 15.1183 6.85114 14.6779 7.28539V10.3478C15.1759 10.8088 15.4929 11.101 15.8119 11.3953C15.4661 11.6917 15.1224 11.986 14.6573 12.3832V15.4847C15.1471 15.956 15.4785 16.275 15.8098 16.594C15.4579 16.8945 15.108 17.195 14.6964 17.5469V20.7472C15.1986 21.1649 15.4991 21.4181 15.8016 21.6692L14.8446 22.6097L14.8425 22.6118ZM13.1323 15.6967C13.2105 15.7173 13.2866 15.7358 13.3649 15.7564V12.4161C12.8545 11.9654 12.5334 11.6814 12.2123 11.3995C12.5663 11.0969 12.9224 10.7923 13.3772 10.4034V7.19278C12.9059 6.83879 12.556 6.57536 12.2062 6.31399C12.556 5.97647 12.9059 5.63689 13.3546 5.20264V2.40985C12.9594 2.38721 12.624 2.35017 12.2905 2.35017C9.51423 2.34605 6.7379 2.34399 3.96158 2.34811C2.61355 2.34811 2.3954 2.55597 2.3954 3.89371C2.39746 10.6462 2.40775 17.4008 2.42009 24.1532C2.42215 25.3963 2.65677 25.6268 3.94717 25.6351C6.20898 25.6515 8.47285 25.6453 10.7347 25.6495C12.7584 25.6522 13.6331 24.6746 13.3587 22.7167C12.8936 22.3113 12.5478 22.0088 12.2041 21.7062C12.5643 21.4201 12.9244 21.132 13.3566 20.7904V17.6354C12.8277 17.1517 12.5169 16.8677 12.2082 16.5837C12.5169 16.2894 12.8236 15.993 13.1323 15.6987V15.6967Z" fill="#FDBA74"/>
<path d="M23.8198 11.9839V12.9018H17.0858C17.0673 12.6281 17.0467 12.3462 17.022 11.9839H23.8198Z" fill="#FDBA74"/>
<path d="M16.8142 4.87129C19.2241 4.87129 21.2637 4.85071 23.3032 4.90216C23.5234 4.90833 23.7313 5.32818 23.9453 5.55457C23.8857 5.65129 23.828 5.74802 23.7683 5.84475C21.6959 5.84475 19.6234 5.86533 17.553 5.81182C17.3554 5.80771 17.1723 5.34259 16.8142 4.87129Z" fill="#FDBA74"/>
<path d="M23.8116 8.42762C23.828 8.7178 23.8445 8.97506 23.863 9.3167H17.1023C17.0797 9.05532 17.055 8.77543 17.0241 8.42762H23.8116Z" fill="#FDBA74"/>
<path d="M17.2196 15.5609H23.7951V16.5487C21.6897 16.5487 19.646 16.5714 17.6045 16.5158C17.3678 16.5096 17.1435 16.063 16.915 15.8202C17.0159 15.7337 17.1188 15.6473 17.2196 15.5609Z" fill="#FDBA74"/>
<path d="M23.8445 20.0474H17.0879V19.1439H23.8013C23.8136 19.4177 23.826 19.6975 23.8424 20.0474H23.8445Z" fill="#FDBA74"/>
<path d="M16.9767 23.3485C17.2175 23.1304 17.4522 22.7291 17.6971 22.7208C19.5123 22.6694 21.3316 22.6817 23.1489 22.7188C23.3711 22.7229 23.5893 22.9966 23.8074 23.1448C23.614 23.3177 23.4246 23.6346 23.2291 23.6387C21.2143 23.6758 19.1974 23.6614 17.1826 23.6614C17.1146 23.5564 17.0447 23.4535 16.9767 23.3485Z" fill="#FDBA74"/>
<path d="M10.8746 4.93303V12.9018H4.2353V4.93303H10.8746ZM8.78361 11.418C8.89269 11.3233 9.00176 11.2307 9.10878 11.136C7.44381 10.7882 7.85955 9.52456 8.12915 8.87216C8.45844 8.07569 9.43602 7.54677 10.3169 6.73178H4.87536C6.31188 8.09833 8.42757 9.15205 6.15135 11.4159H8.78155L8.78361 11.418Z" fill="#FDBA74"/>
<path d="M4.25383 15.5732C6.30365 15.5732 8.35348 15.5526 10.4012 15.6041C10.6071 15.6082 10.8026 16.0445 11.0043 16.2791C10.9405 16.3676 10.8746 16.4561 10.8108 16.5467C8.76098 16.5467 6.71115 16.5672 4.66338 16.5158C4.45757 16.5096 4.26206 16.0712 4.06242 15.8346C4.12622 15.7481 4.19003 15.6617 4.25383 15.5753V15.5732Z" fill="#FDBA74"/>
<path d="M4.22913 20.0392V19.2304C4.31556 19.1892 4.37525 19.1378 4.43699 19.1357C6.35716 19.1254 8.27733 19.1398 10.1954 19.1048C10.9137 19.0925 10.9981 19.4156 10.8149 20.0392H4.22913Z" fill="#FDBA74"/>
<path d="M10.7943 22.7579C11.0248 23.3959 10.9055 23.6964 10.1975 23.684C8.41728 23.6531 6.635 23.6573 4.85478 23.6696C4.16739 23.6758 4.04596 23.363 4.25383 22.7579H10.7943Z" fill="#FDBA74"/>
</svg>
